<svg xmlns="http://www.w3.org/2000/svg" viewBox="0 0 400 600" width="400" height="600">
  <defs>
    <linearGradient id="headerGrad" x1="0%" y1="0%" x2="100%" y2="100%">
      <stop offset="0%" stop-color="#005691" />
      <stop offset="100%" stop-color="#002b49" />
    </linearGradient>
    <filter id="shadow" x="-5%" y="-5%" width="110%" height="110%">
      <feDropShadow dx="0" dy="4" stdDeviation="6" flood-opacity="0.1" />
    </filter>
  </defs>

  <!-- Background -->
  <rect width="400" height="600" fill="#f8fafc" rx="16" />

  <!-- Slip Container Card -->
  <rect x="20" y="20" width="360" height="560" fill="#ffffff" rx="16" filter="url(#shadow)" stroke="#e2e8f0" stroke-width="1"/>

  <!-- Top Header Banner -->
  <path d="M 20 36 Q 20 20 36 20 L 364 20 Q 380 20 380 36 L 380 110 L 20 110 Z" fill="url(#headerGrad)" />

  <!-- Success Icon Badge -->
  <circle cx="200" cy="110" r="32" fill="#ffffff" filter="url(#shadow)" />
  <circle cx="200" cy="110" r="26" fill="#10b981" />
  <path d="M190 110 L197 117 L212 102" fill="none" stroke="#ffffff" stroke-width="4" stroke-linecap="round" stroke-linejoin="round" />

  <!-- Header Title -->
  <text x="200" y="62" fill="#ffffff" font-family="-apple-system, BlinkMacSystemFont, 'Segoe UI', Roboto, sans-serif" font-size="18" font-weight="bold" text-anchor="middle">หลักฐานการโอนเงิน</text>
  <text x="200" y="84" fill="#93c5fd" font-family="-apple-system, BlinkMacSystemFont, 'Segoe UI', Roboto, sans-serif" font-size="12" text-anchor="middle">TRANSFER SUCCESSFUL (MOCK SLIP)</text>

  <!-- Amount -->
  <text x="200" y="175" fill="#64748b" font-family="-apple-system, BlinkMacSystemFont, 'Segoe UI', Roboto, sans-serif" font-size="12" font-weight="600" text-anchor="middle">จำนวนเงิน</text>
  <text x="200" y="210" fill="#0f172a" font-family="-apple-system, BlinkMacSystemFont, 'Segoe UI', Roboto, sans-serif" font-size="28" font-weight="bold" text-anchor="middle">฿ 4,990.00</text>

  <!-- Divider Line -->
  <line x1="45" y1="230" x2="355" y2="230" stroke="#f1f5f9" stroke-width="2" stroke-dasharray="6,6" />

  <!-- Transfer Info -->
  <!-- Sender -->
  <circle cx="60" cy="265" r="15" fill="#e0f2fe" />
  <text x="60" y="270" fill="#0284c7" font-family="sans-serif" font-size="12" font-weight="bold" text-anchor="middle">จาก</text>
  <text x="88" y="260" fill="#334155" font-family="-apple-system, BlinkMacSystemFont, 'Segoe UI', Roboto, sans-serif" font-size="13" font-weight="bold">สมชาย สายเกม</text>
  <text x="88" y="276" fill="#94a3b8" font-family="-apple-system, BlinkMacSystemFont, 'Segoe UI', Roboto, sans-serif" font-size="11">ธนาคารกสิกรไทย xxx-x-x1234-x</text>

  <!-- Arrow -->
  <path d="M60 290 L60 305 M56 300 L60 305 L64 300" fill="none" stroke="#cbd5e1" stroke-width="2" stroke-linecap="round" />

  <!-- Receiver -->
  <circle cx="60" cy="330" r="15" fill="#dcfce7" />
  <text x="60" y="335" fill="#16a34a" font-family="sans-serif" font-size="12" font-weight="bold" text-anchor="middle">ถึง</text>
  <text x="88" y="325" fill="#334155" font-family="-apple-system, BlinkMacSystemFont, 'Segoe UI', Roboto, sans-serif" font-size="13" font-weight="bold">FAKDUAI E-COMMERCE SHOP</text>
  <text x="88" y="341" fill="#94a3b8" font-family="-apple-system, BlinkMacSystemFont, 'Segoe UI', Roboto, sans-serif" font-size="11">พร้อมเพย์ 089-xxx-8899</text>

  <!-- Divider -->
  <line x1="45" y1="365" x2="355" y2="365" stroke="#f1f5f9" stroke-width="1.5" />

  <!-- Details Table -->
  <text x="45" y="395" fill="#64748b" font-family="-apple-system, BlinkMacSystemFont, 'Segoe UI', Roboto, sans-serif" font-size="12">วันที่ทำรายการ</text>
  <text x="355" y="395" fill="#1e293b" font-family="-apple-system, BlinkMacSystemFont, 'Segoe UI', Roboto, sans-serif" font-size="12" font-weight="600" text-anchor="end">30 ส.ค. 2026 14:25 น.</text>

  <text x="45" y="425" fill="#64748b" font-family="-apple-system, BlinkMacSystemFont, 'Segoe UI', Roboto, sans-serif" font-size="12">เลขที่อ้างอิง</text>
  <text x="355" y="425" fill="#1e293b" font-family="monospace" font-size="11" font-weight="bold" text-anchor="end">20260830987123490</text>

  <text x="45" y="455" fill="#64748b" font-family="-apple-system, BlinkMacSystemFont, 'Segoe UI', Roboto, sans-serif" font-size="12">ค่าธรรมเนียม</text>
  <text x="355" y="455" fill="#10b981" font-family="-apple-system, BlinkMacSystemFont, 'Segoe UI', Roboto, sans-serif" font-size="12" font-weight="bold" text-anchor="end">0.00 บาท</text>

  <!-- QR Code Mock box -->
  <rect x="150" y="480" width="100" height="70" fill="#f8fafc" rx="8" stroke="#e2e8f0" stroke-width="1" />
  <!-- QR mock patterns -->
  <rect x="165" y="492" width="16" height="16" fill="#1e293b" />
  <rect x="168" y="495" width="10" height="10" fill="#ffffff" />
  <rect x="171" y="498" width="4" height="4" fill="#1e293b" />

  <rect x="219" y="492" width="16" height="16" fill="#1e293b" />
  <rect x="222" y="495" width="10" height="10" fill="#ffffff" />
  <rect x="225" y="498" width="4" height="4" fill="#1e293b" />

  <rect x="165" y="518" width="16" height="16" fill="#1e293b" />
  <rect x="168" y="521" width="10" height="10" fill="#ffffff" />
  <rect x="171" y="524" width="4" height="4" fill="#1e293b" />

  <!-- QR dots -->
  <circle cx="200" cy="500" r="2.5" fill="#1e293b" />
  <circle cx="208" cy="505" r="2.5" fill="#1e293b" />
  <circle cx="195" cy="515" r="2.5" fill="#1e293b" />
  <circle cx="205" cy="525" r="2.5" fill="#1e293b" />
  <circle cx="225" cy="525" r="2.5" fill="#1e293b" />

  <text x="200" y="565" fill="#94a3b8" font-family="-apple-system, BlinkMacSystemFont, 'Segoe UI', Roboto, sans-serif" font-size="9" text-anchor="middle">สแกนตรวจสอบสลิปได้ทุกธนาคาร</text>
</svg>
